<svg xmlns="http://www.w3.org/2000/svg" viewBox="0 0 512 512"><g><path fill="#ff7ca8" d="M256 512c-7.6 0-15.2-2.2-21.7-6.7C90.2 406.2 0 317.2 0 205.5 0 92.1 92.1 0 205.5 0c44.2 0 86.2 14.2 120.5 40.7C370.3 14.2 412.3 0 456.5 0 569.9 0 662 92.1 662 205.5c0 111.7-90.2 200.7-234.3 299.8-6.5 4.5-14.1 6.7-21.7 6.7z"/><ellipse fill="#fff6e0" cx="256" cy="352" rx="80" ry="80"/><ellipse fill="#fff6e0" cx="128" cy="224" rx="48" ry="64"/><ellipse fill="#fff6e0" cx="384" cy="224" rx="48" ry="64"/><ellipse fill="#fff6e0" cx="176" cy="112" rx="32" ry="40"/><ellipse fill="#fff6e0" cx="336" cy="112" rx="32" ry="40"/></g></svg>
